<svg width="821" height="781" viewBox="0 0 821 781" fill="none" xmlns="http://www.w3.org/2000/svg">
<path d="M786.957 378.379C786.957 620.709 689.99 779.852 447.66 779.852C205.33 779.852 -4.36239e-05 625.302 0 358.838C0 116.508 196.447 0 438.778 0C681.108 0 786.957 136.049 786.957 378.379Z" fill="#5D69D7"/>
<path d="M303.77 388.409L316.205 379.527L291.335 326.234C286.715 295.002 296.36 282.756 325.087 265.836C368.515 242.699 392.115 237.836 433.449 237.413C465.054 246.289 484.089 262.095 520.494 312.023C519.389 299.963 519.909 293.274 529.376 281.824C540.834 276.397 545.946 278.474 554.246 285.376C554.596 211.899 544.928 175.694 513.388 118.392C481.598 88.3225 464.184 84.5431 433.449 88.193L394.367 123.722L325.087 129.051C285.016 145.01 266.092 159.849 239.818 198.331C227.534 233.753 232.871 254.759 245.148 292.482L282.453 367.092L303.77 388.409Z" fill="black"/>
<path d="M456.542 498.548L460.095 487.89L527.599 439.926L541.81 482.56H563.127V503.877L550.692 526.971L518.717 548.288L481.412 551.841L456.542 539.406L447.66 503.877L456.542 498.548Z" fill="#FFCDAE"/>
<path d="M339.298 626.451H255.806C271.325 566.612 281.649 538.839 303.769 502.101L277.123 432.821C274.45 409.63 278.962 398.015 296.663 379.528L312.651 375.975C308.902 417.2 316.276 443.154 357.062 455.914C356.576 476.076 353.53 486.45 339.298 502.101C346.505 542.161 344.222 572.082 339.298 626.451Z" fill="#FFCDAE"/>
<path d="M524.046 445.255C535.495 416.451 539.89 399 543.587 365.316C560.777 365.336 569.345 362.894 572.01 329.787C570.842 300.827 565.499 289.096 543.587 280.047C525.526 278.285 520.407 286.279 518.717 313.799C498.734 282.911 486.627 267.717 461.871 248.071C427.631 233.828 407.052 231.956 365.944 248.071C338.214 256.138 323.262 263.47 298.44 285.376C286.961 303.958 285.871 315.824 294.887 335.116L312.651 375.974C297.95 388.206 303.468 404.48 312.651 434.597C329.756 452.465 334.915 453.423 349.956 454.137L371.273 450.585C391.778 476.248 409.864 482.878 449.436 486.113C488.107 489.098 504.204 479.621 524.046 445.255Z" fill="#FFCDAE"/>
<path d="M447.66 503.877C399.382 514.129 374.762 530.477 333.968 573.158L325.086 630.004L413.908 720.601L556.022 741.919L705.242 711.719L683.924 670.861L767.417 606.91C727.441 553.413 705.379 522.984 651.949 486.113L556.022 480.784C555.883 523.651 542.006 535.886 502.729 546.512C468.751 549.857 451.587 548.705 447.66 503.877Z" fill="#3EA0D8"/>
<path d="M458.318 725.931C419.264 738.051 404.085 750.069 387.261 779.224H788.734C819.78 773.114 824.982 760.717 817.157 725.931L756.758 615.793L683.924 672.638L710.571 711.72L545.363 743.695C500.002 728.092 479.631 723.204 458.318 725.931Z" fill="#FFCDAE"/>
<path d="M293.11 756.13C284.358 759.194 280.73 762.47 278.899 773.894H307.322C304.899 765.028 302.855 760.485 293.11 756.13Z" fill="#495AF0"/>
<path d="M310.875 772.118L296.663 752.577H403.249L387.261 772.118H310.875Z" fill="#7F7E7E"/>
<path d="M106.586 672.638L145.667 699.284L294.887 750.801H403.249C450.956 714.747 477.368 714.296 524.046 738.366L611.091 702.837L541.81 697.508C488.96 698.504 460.791 703.163 413.908 720.602C409.638 686.984 381.405 661.525 294.887 606.91L106.586 672.638Z" fill="white"/>
<path d="M103.033 718.825C129.565 729.236 148.095 734.433 181.196 743.695L294.887 750.801C246.412 724.467 212.831 714.074 147.444 699.284C125.221 704.832 116.954 709.729 103.033 718.825Z" fill="#C4C4C4"/>
<path d="M101.256 745.471L88.8213 772.118H275.346L293.11 754.353L262.911 741.918L101.256 745.471Z" fill="#857E7E"/>
<path d="M385.485 781H72.8335L88.8213 773.895H385.485V781Z" fill="#C4C4C4"/>
</svg>
