<svg width="821" height="781" viewBox="0 0 821 781" fill="none" xmlns="http://www.w3.org/2000/svg">
<path d="M820.39 405.027C820.39 638.749 771.994 781 433.5 781C95.005 781 25.5374 580.629 25.5374 346.907C25.5374 113.186 70.104 0 408.599 0C747.093 0 820.39 171.306 820.39 405.027Z" fill="#5C68CF"/>
<path d="M526.709 244.524C527.702 254.195 529.932 258.275 534.597 264.999C537.246 268.912 539.761 270.178 546.429 270.583C559.1 270.505 566.151 267.931 577.98 257.553C583.18 255.601 584.9 253.206 583.895 244.524C581.839 239.453 580.349 236.127 576.008 227.771C570.555 221.494 566.269 219.045 554.316 218.465C543.244 217.656 538.166 219.943 530.653 227.771C526.949 235.082 527.051 238.407 526.709 244.524Z" fill="#FFCDAE"/>
<path d="M217.068 214.118L220.811 188.681L247.009 190.498C263.351 184.984 271.449 179.167 284.434 165.061L305.018 143.258L312.503 141.441C313.941 161.358 310.773 173.451 301.276 195.949C290.793 210.781 284.265 215.753 271.335 217.752C266.897 217.757 263.715 217.687 262.154 217.126L261.979 221.386L217.068 214.118Z" fill="#FF9BA0"/>
<path d="M215.731 186.511L221.478 190.151C232.329 190.832 238.165 190.767 248.296 190.151C265.179 184.296 273.782 179.175 286.607 164.67C295.805 158.334 300.178 153.009 307.678 142.829C321.739 138.858 329.457 133.82 328.75 122.81C328.558 108.686 321.887 102.97 307.678 90.0479C291.368 80.2968 281.566 76.7707 263.62 71.8474C246.577 69.1643 237.315 70.921 221.478 80.9476C207.379 92.8131 201.702 99.9477 196.575 113.709C192.604 137.394 194.956 147.259 204.237 161.03L215.731 186.511Z" fill="black"/>
<path d="M438.576 297.264L407.956 421.13L402.215 464.295H654.833L698.85 295.388C699.904 288.304 697.581 286.426 689.281 286.004H453.887C445.684 285.548 442.47 288.314 438.576 297.264Z" fill="#68D6F9"/>
<path d="M632.733 485.819C651.401 481.932 656.264 478.071 653.805 467.37H341.563V485.819H632.733Z" fill="#C4C4C4"/>
<path d="M555.805 450.971C550.962 451.444 548.317 451.637 542.67 453.021V479.669C555.837 479.6 567.862 477.189 585.826 473.52C592.127 471.359 594.037 470.045 591.456 467.37C597.485 464.429 598.866 462.929 597.085 459.17C600.365 456.884 601.002 455.158 598.961 450.971C595.099 449.526 592.652 449.166 587.703 448.921C575.231 449.12 568.247 449.568 555.805 450.971Z" fill="#FF9BA0"/>
<path d="M411.188 428.627L416.969 426.75L447.803 308.484C452.076 300.548 455.394 298.347 463.219 299.097H669.417C680.303 298.36 682.517 300.637 680.98 308.484L642.438 464.295H655.928L698.323 299.097C700.533 289.136 698.32 286.063 686.761 285.957H455.511C446.852 286.678 443.345 288.571 440.094 295.343L405.407 421.118L411.188 428.627Z" fill="#0A0A0A"/>
<path d="M532.178 265.622C530.785 264.227 529.637 261.257 529.955 260.945C530.273 260.634 531.835 262.129 533.131 262.504L536.104 259.585C536.99 258.664 537.527 258.438 538.53 258.451C540.369 258.605 541.232 259.205 542.659 260.634L543.929 259.075C546.023 257.876 546.958 258.086 548.375 259.387C549.625 261.055 551.869 262.504 551.869 262.504C552.703 263.005 554.646 260.755 555.045 260.634C556.553 260.174 553.258 265.761 553.139 265.622C550.89 267.243 549.558 267.487 547.105 267.18C544.882 266.375 543.86 265.669 542.341 264.063C540.981 266.294 539.842 267.007 537.26 267.492C534.963 267.577 533.779 267.358 532.178 265.622Z" fill="black"/>
<path d="M526.709 230.525L528.595 244.753L532.366 226.968C545.637 229.007 553.474 228.419 566.746 227.867C564.184 237.115 569.92 254.439 574.289 247.431C575.469 245.538 573.641 246.361 575.287 243.76C577.788 241.324 578.263 240.927 582.83 243.76C587.397 246.594 578.923 222.406 577.622 221.632C575.825 218.463 573.873 216.574 566.308 212.739C556.569 211.731 551.172 211.876 541.795 214.518C537.024 216.212 534.385 217.272 530.481 221.632L526.709 230.525Z" fill="black"/>
<ellipse cx="545.863" cy="365.902" rx="67.0358" ry="64.5709" fill="#2ABDAB"/>
<path d="M550.658 278.13V270.303C557.96 269.932 563.863 267.043 570.603 264.433C571.614 268.131 569.705 272.246 568.609 276.173C569.486 277.813 571.679 277.777 574.592 278.13C565.24 282.706 560.407 284.399 552.653 285.956C544.904 284.689 542.493 283.081 542.68 278.13H550.658Z" fill="#FFD2B0"/>
<path d="M528.956 278.587H542.198C543.127 285.05 547.819 283.838 557.331 284.151C564.849 280.878 568.667 280.727 574.356 276.732C583.736 277.074 587.125 278.513 591.381 282.296C597.92 290.485 601.141 295.445 606.514 304.552L591.381 313.825L585.706 306.406C581.044 340.137 579.514 359.267 578.139 393.574C553.241 393.037 538.313 393.086 515.714 391.72L521.389 310.116L515.714 311.97L504.364 298.988C518.799 285.628 525.547 279.64 528.956 278.587Z" fill="#6268E8"/>
<path d="M489.433 312.978L504.515 301.616L513.941 311.085C505.65 313.853 500.343 317.757 489.433 329.004C477.588 323.432 471.372 319.696 463.04 309.191C456.571 296.364 452.061 288.774 447.958 276.997C444.29 276.34 442.029 275.748 436.646 273.21C428.681 266.231 424.89 262.432 421.564 256.166C420.768 248.142 422.217 245.097 429.105 242.91C435.071 246.874 438.37 248.937 444.187 252.378C446.826 253.545 447.886 250.893 449.843 246.697C452.638 255.572 453.128 260.548 451.728 269.422C461.745 289.129 469.991 298.561 489.433 312.978Z" fill="#FFCDAE"/>
<path d="M611.911 352.236C604.629 336.218 600.17 327.313 590.553 311.764L604.145 304.405C612.781 320.885 617.532 330.69 625.503 348.557L629.386 411.104C634.469 418.342 635.448 423.813 635.211 435.02C631.454 442.339 628.344 443.562 621.619 442.378C618.095 432.877 616.328 425.736 611.911 423.982C608.474 427.19 605.36 427.454 606.086 425.821C605.221 423.973 612.003 410.007 621.619 407.425L611.911 352.236Z" fill="#FFCDAE"/>
<path d="M511.997 422.84C509.869 412.785 510.053 406.176 515.797 390.5L578.488 392.297C582.322 405.882 581.754 412.931 576.588 424.637C551.636 433.249 537.466 432.06 511.997 422.84Z" fill="#3D3030"/>
<path d="M814.006 488.21L325.602 482.744L337.139 531.941H814.006V488.21Z" fill="#201F1F"/>
<path d="M206.612 234.915L214.307 218.311L262.406 223.846L270.102 245.985C290.427 252.198 318.2 268.123 318.2 268.123C318.2 268.123 367.57 361.571 408.625 430.473L539.453 448.921V485.785C539.487 485.795 539.487 485.806 539.453 485.819V485.785C537.987 485.364 474.357 487.889 447.104 485.819C419.215 483.701 405.312 479.832 368.222 469.215C355.53 460.335 349.793 454.584 341.287 443.387H339.363C342.002 487.67 347.679 511.579 366.298 552.235C343.852 588.19 326.048 602.542 287.417 620.496C267.771 624.973 255.167 627.7 225.851 633.41L145.046 504.268L118.111 365.902L133.502 292.107C138.652 271.893 144.182 261.636 160.437 245.985C178.822 238.398 188.952 235.869 206.612 234.915Z" fill="#06BEF9"/>
<path d="M448.443 681.731H406.256L387.08 670.632C343.8 670.331 321.025 669.392 285.447 665.082C250.463 657.783 238.221 650.648 229.837 631.784C301.272 622.35 330.169 603.411 365.987 550.389C431.428 562.311 465.364 571.667 519.395 594.787C554.692 615.664 557.764 631.317 546.241 663.232L481.043 777.925L417.762 776.075L448.443 681.731Z" fill="black"/>
<path d="M444.223 682.606H102.385C84.9172 682.126 77.3966 677.598 67.6212 660.363L0.0259739 404.566C-0.32544 380.459 2.78938 368.172 15.4763 348.958C29.7503 331.079 38.52 323.778 56.0335 317.446C77.0242 307.051 132.532 309.549 142.942 317.446C183.311 336.588 201.519 354.719 227.919 397.151L268.476 567.683C282.799 620.676 306.665 636.309 378.559 638.12L448.086 639.973L457.742 647.388L459.674 658.509V673.338C455.465 677.945 451.933 679.893 444.223 682.606Z" fill="#0075FF"/>
<path d="M258.566 324.359C269.555 293.285 278.408 278.072 314.364 267.508C353.586 327.593 373.472 363.859 408.643 428.893L539.478 449.066V483.911C512.797 485.525 495.392 486.026 456.744 485.745C423.797 482.698 405.238 480.572 370.161 467.406L339.377 439.897C317.224 420.299 305.502 407.248 285.503 381.211C272.024 357.962 266.056 345.466 258.566 324.359Z" fill="#10A6FB"/>
<path d="M2.14806 400.164C-5.46653 360.172 6.64688 342.278 46.78 315.43C102.84 299.375 136.929 321.809 200.963 400.164C212.05 483.964 224.879 532.492 255.739 620.868C285.649 663.206 336.527 663.586 430.209 662.251C444.014 673.218 445.416 676.964 442.381 681.57H418.037C213.662 693.355 58.2207 715.11 56.9366 651.589L2.14806 400.164Z" fill="#055AFF"/>
</svg>
