<svg width="268" height="282" viewBox="0 0 268 282" fill="none" xmlns="http://www.w3.org/2000/svg">
<path d="M268 129.171C268 213.576 256.283 282 143.967 282C31.6511 282 0 226.741 0 142.336C0 57.9302 31.6511 0 143.967 0C256.283 0 268 44.7651 268 129.171Z" fill="#1729C6" fill-opacity="0.7"/>
<path d="M142.237 65.2253L144.129 57.3569H164.936L172.502 59.605L181.014 66.9114L182.905 68.0354L183.851 70.2835V72.5316V78.7139L182.905 82.6481L181.014 85.4582L180.068 89.3924L179.122 97.2608L177.704 104.567L174.866 108.501L171.083 112.997L165.881 117.494L163.044 120.304H160.207H155.951L155.005 119.18L151.695 115.246L148.385 110.187L146.02 105.691L144.129 97.2608L143.183 90.5164L142.237 84.3342L141.764 77.5899V74.7797L142.237 65.2253Z" fill="#EAA894"/>
<path d="M138.927 72.5317L141.291 78.714L141.764 70.8456V68.5975L142.237 65.2253L143.656 62.4152V58.481L145.074 61.2912L147.912 62.9772H151.222L154.532 62.4152H156.424L161.625 61.2912H164.936H169.192L171.556 62.9772L174.866 65.2253L177.231 70.8456V78.1519H178.649L179.595 72.5317L180.541 70.8456L181.487 69.1595H182.905L183.851 72.5317L185.27 66.9114V61.2912V55.6709L184.797 50.6127L183.851 46.6785L180.541 43.3063L177.231 41.0582L173.92 39.3722L170.137 37.6861L164.936 36.562L161.625 36H157.369L154.532 36.562L151.222 37.6861L147.912 39.3722L145.074 42.1823L143.656 43.8684L142.237 46.6785L141.291 50.6127H140.345L138.927 51.7367L137.981 56.2329V62.9772L138.927 72.5317Z" fill="black"/>
<path d="M139.078 78.5012L135.295 79.6253H134.822V81.3114L135.295 82.9975L136.714 84.1215L137.659 86.9316L139.551 91.4278L141.442 93.1139L143.807 94.238H147.117L150.427 92.5519L152.792 89.7418L153.737 86.9316L154.683 84.6835H155.629H157.993L158.939 88.0557L160.831 90.8658L162.722 92.5519L164.614 94.238H166.978H170.289L172.653 93.1139L175.49 90.8658L176.909 88.0557L177.855 84.6835V82.4354L178.8 79.6253V77.3772H177.855H175.49H172.653H168.87H164.614H161.777L158.939 79.6253H156.575H153.737H152.319L149.481 78.5012H145.225H142.861H139.078Z" fill="black"/>
<path d="M140.427 79.6254L137.981 84.1216L138.959 88.6178L140.427 91.187L143.362 93.114H146.297L149.232 91.187L151.189 89.9024L152.168 84.7639V82.1946L150.211 79.6254H147.276H144.34H140.427Z" fill="#EAA894"/>
<path d="M142.322 82.6264L140.824 79.4437L137.829 82.6264V85.1726L139.327 88.9918L140.824 91.5379L142.821 92.811V88.9918L142.322 82.6264Z" fill="#5B66D4"/>
<path d="M106.77 142.117L104.879 151.109L150.276 158.415L165.881 215.742L229.721 224.172V210.122V191.575L229.248 165.722L228.775 152.795L227.83 140.43L226.884 137.62L225.465 134.248L223.101 132.562L217.426 128.628L203.712 116.825L201.821 115.139L201.348 113.453L198.983 108.395L192.363 100.527L184.797 94.9064L179.122 90.4102L177.704 98.8405L176.285 102.775L170.137 109.519L162.098 116.825H158.788H155.478L154.059 115.139L146.02 103.337H142.71L139.4 105.023L137.508 107.271L133.252 109.519L127.577 114.015L119.065 121.322L111.026 128.066L109.135 132.562L106.77 142.117Z" fill="black"/>
<path d="M57.0394 239.125L33 144.365L151.755 155.146L165.217 214.726L234.45 223.805L233.969 228.344L170.024 262.39L57.0394 239.125Z" fill="#939393"/>
<path d="M106.297 194.947L75.5598 191.575L81.2345 210.684L111.972 214.618L106.297 194.947Z" fill="#4E3F3F"/>
<path d="M171.556 255.084L163.044 220.8L229.721 227.544L171.556 255.084Z" fill="#FFFBFB"/>
<path d="M144.28 113.347L146.171 103.792L156.102 116.719H158.939L163.668 115.595L170.288 109.413L175.963 102.668L177.855 96.4861L178.8 90.8658L181.165 94.238L184.002 100.42L183.529 107.165L177.855 122.901L170.288 142.01L162.722 159.995L156.102 175.732L149.954 156.623L145.225 154.937L144.28 147.63L143.334 140.886V136.952V126.835V121.215L144.28 113.347Z" fill="white"/>
<path d="M153.113 126.38L158.788 118.511L167.773 124.694L161.625 134.81L166.827 149.985L155.951 176.962L149.33 157.853L155.005 134.81L153.113 126.38Z" fill="#6CBFFB"/>
<path d="M159.412 81.7671V84.0152L160.358 86.2633L162.249 89.0734L163.668 91.3215L165.56 92.4456H169.343L171.707 91.3215L174.072 89.6354L175.017 87.9493L175.963 84.5772L175.49 80.081L174.072 78.3949L171.707 77.8329H167.451L163.668 78.3949L160.358 80.081L159.412 81.7671Z" fill="#EAA894"/>
</svg>
